# xmcd
#
# Track frame offsets:
#	150
#	9672
#	32482
#	49657
#	67010
#	83302
#	97735
#	122830
#	139385
#	155570
#
# Disc length: 2291 seconds
#
# Revision: 5
# Processed by: cddbd v1.5.2PL0 Copyright (c) Steve Scherf et al.
# Submitted via: audiograbber 1.83.01
#
DISCID=7708f10a
DTITLE=Poco - Original Album Classics - CD 4 - From The Inside
DYEAR=1971
DGENRE=Country Rock
TTITLE0=Hoe Down
TTITLE1=Bad Weather
TTITLE2=What Am I Gonna Do
TTITLE3=You Are The One
TTITLE4=Railroad Days
TTITLE5=From The Inside
TTITLE6=Do You Feel It Too
TTITLE7=Ol' Forgiver
TTITLE8=What If I Should Say I Love You
TTITLE9=Just For Me And You
EXTD=
EXTT0=
EXTT1=
EXTT2=
EXTT3=
EXTT4=
EXTT5=
EXTT6=
EXTT7=
EXTT8=
EXTT9=
PLAYORDER=
